<svg width="320" height="184" viewBox="0 0 320 184" fill="none" xmlns="http://www.w3.org/2000/svg">
<rect width="320" height="184" fill="url(#paint0_linear_130_2)"/>
<path d="M55.7415 92H49.2898V74.5455H55.733C57.5114 74.5455 59.0426 74.8949 60.3267 75.5938C61.6165 76.2869 62.6108 77.2869 63.3097 78.5938C64.0085 79.8949 64.358 81.4517 64.358 83.2642C64.358 85.0824 64.0085 86.6449 63.3097 87.9517C62.6165 89.2585 61.625 90.2614 60.3352 90.9602C59.0455 91.6534 57.5142 92 55.7415 92ZM53.5085 88.4034H55.5795C56.5568 88.4034 57.3835 88.2386 58.0597 87.9091C58.7415 87.5739 59.2557 87.0312 59.6023 86.2812C59.9545 85.5256 60.1307 84.5199 60.1307 83.2642C60.1307 82.0085 59.9545 81.0085 59.6023 80.2642C59.25 79.5142 58.7301 78.9744 58.0426 78.6449C57.3608 78.3097 56.5199 78.142 55.5199 78.142H53.5085V88.4034ZM72.9403 92.2472C71.571 92.2472 70.3892 91.9773 69.3949 91.4375C68.4063 90.892 67.6449 90.1165 67.1108 89.1108C66.5824 88.0994 66.3182 86.8977 66.3182 85.5057C66.3182 84.1534 66.5852 82.9716 67.1193 81.9602C67.6534 80.9432 68.4062 80.1534 69.3778 79.5909C70.3494 79.0227 71.4943 78.7386 72.8125 78.7386C73.7443 78.7386 74.5966 78.8835 75.3693 79.1733C76.142 79.4631 76.8097 79.892 77.3722 80.4602C77.9347 81.0284 78.3722 81.7301 78.6847 82.5653C78.9972 83.3949 79.1534 84.3466 79.1534 85.4205V86.4602H67.7756V84.0398H75.2756C75.2699 83.5966 75.1648 83.2017 74.9602 82.8551C74.7557 82.5085 74.4744 82.2386 74.1165 82.0455C73.7642 81.8466 73.358 81.7472 72.8977 81.7472C72.4318 81.7472 72.0142 81.8523 71.6449 82.0625C71.2756 82.267 70.983 82.5483 70.767 82.9062C70.5511 83.2585 70.4375 83.6591 70.4261 84.108V86.571C70.4261 87.1051 70.5313 87.5739 70.7415 87.9773C70.9517 88.375 71.25 88.6847 71.6364 88.9062C72.0227 89.1278 72.483 89.2386 73.017 89.2386C73.3864 89.2386 73.7216 89.1875 74.0227 89.0852C74.3239 88.983 74.5824 88.8324 74.7983 88.6335C75.0142 88.4347 75.1761 88.1903 75.2841 87.9006L79.1108 88.0114C78.9517 88.8693 78.6023 89.6165 78.0625 90.2528C77.5284 90.8835 76.8267 91.375 75.9574 91.7273C75.0881 92.0739 74.0824 92.2472 72.9403 92.2472ZM92.7109 82.9062L88.8842 83.0085C88.8445 82.7358 88.7365 82.4943 88.5604 82.2841C88.3842 82.0682 88.1541 81.9006 87.87 81.7812C87.5916 81.6562 87.2678 81.5938 86.8984 81.5938C86.4155 81.5938 86.0036 81.6903 85.6626 81.8835C85.3274 82.0767 85.1626 82.3381 85.1683 82.6676C85.1626 82.9233 85.2649 83.1449 85.4751 83.3324C85.6911 83.5199 86.0746 83.6705 86.6257 83.7841L89.1484 84.2614C90.4553 84.5114 91.4268 84.9261 92.0632 85.5057C92.7053 86.0852 93.0291 86.8523 93.0348 87.8068C93.0291 88.7045 92.7621 89.4858 92.2337 90.1506C91.7109 90.8153 90.995 91.3324 90.0859 91.7017C89.1768 92.0653 88.1371 92.2472 86.9666 92.2472C85.0973 92.2472 83.6229 91.8636 82.5433 91.0966C81.4695 90.3239 80.8558 89.2898 80.7024 87.9943L84.8189 87.892C84.9098 88.3693 85.1456 88.733 85.5263 88.983C85.907 89.233 86.3928 89.358 86.9837 89.358C87.5178 89.358 87.9524 89.2585 88.2876 89.0597C88.6229 88.8608 88.7933 88.5966 88.799 88.267C88.7933 87.9716 88.6626 87.7358 88.407 87.5597C88.1513 87.3778 87.7507 87.2358 87.2053 87.1335L84.9212 86.6989C83.6087 86.4602 82.6314 86.0199 81.9893 85.3778C81.3473 84.7301 81.0291 83.9062 81.0348 82.9062C81.0291 82.0312 81.2621 81.2841 81.7337 80.6648C82.2053 80.0398 82.8757 79.5625 83.745 79.233C84.6143 78.9034 85.6399 78.7386 86.8217 78.7386C88.5945 78.7386 89.9922 79.1108 91.0149 79.8551C92.0376 80.5937 92.603 81.6108 92.7109 82.9062ZM101.206 92.2472C99.8366 92.2472 98.6548 91.9773 97.6605 91.4375C96.6719 90.892 95.9105 90.1165 95.3764 89.1108C94.848 88.0994 94.5838 86.8977 94.5838 85.5057C94.5838 84.1534 94.8509 82.9716 95.3849 81.9602C95.919 80.9432 96.6719 80.1534 97.6435 79.5909C98.6151 79.0227 99.7599 78.7386 101.078 78.7386C102.01 78.7386 102.862 78.8835 103.635 79.1733C104.408 79.4631 105.075 79.892 105.638 80.4602C106.2 81.0284 106.638 81.7301 106.95 82.5653C107.263 83.3949 107.419 84.3466 107.419 85.4205V86.4602H96.0412V84.0398H103.541C103.536 83.5966 103.43 83.2017 103.226 82.8551C103.021 82.5085 102.74 82.2386 102.382 82.0455C102.03 81.8466 101.624 81.7472 101.163 81.7472C100.697 81.7472 100.28 81.8523 99.9105 82.0625C99.5412 82.267 99.2486 82.5483 99.0327 82.9062C98.8168 83.2585 98.7031 83.6591 98.6918 84.108V86.571C98.6918 87.1051 98.7969 87.5739 99.0071 87.9773C99.2173 88.375 99.5156 88.6847 99.902 88.9062C100.288 89.1278 100.749 89.2386 101.283 89.2386C101.652 89.2386 101.987 89.1875 102.288 89.0852C102.589 88.983 102.848 88.8324 103.064 88.6335C103.28 88.4347 103.442 88.1903 103.55 87.9006L107.376 88.0114C107.217 88.8693 106.868 89.6165 106.328 90.2528C105.794 90.8835 105.092 91.375 104.223 91.7273C103.354 92.0739 102.348 92.2472 101.206 92.2472ZM113.715 84.5341V92H109.548V78.9091H113.511V81.3125H113.656C113.945 80.5114 114.44 79.8835 115.138 79.429C115.837 78.9688 116.67 78.7386 117.636 78.7386C118.556 78.7386 119.354 78.946 120.031 79.3608C120.712 79.7699 121.241 80.3437 121.616 81.0824C121.996 81.8153 122.184 82.6733 122.178 83.6562V92H118.011V84.4744C118.016 83.7472 117.832 83.179 117.457 82.7699C117.087 82.3608 116.573 82.1562 115.914 82.1562C115.477 82.1562 115.09 82.2528 114.755 82.446C114.425 82.6335 114.17 82.9034 113.988 83.2557C113.812 83.608 113.721 84.0341 113.715 84.5341ZM136.989 78.9091L132.497 92H127.724L123.241 78.9091H127.631L130.043 87.9261H130.179L132.599 78.9091H136.989ZM144.276 92.2472C142.901 92.2472 141.719 91.9659 140.73 91.4034C139.747 90.8352 138.989 90.0455 138.455 89.0341C137.926 88.017 137.662 86.8381 137.662 85.4972C137.662 84.1506 137.926 82.9716 138.455 81.9602C138.989 80.9432 139.747 80.1534 140.73 79.5909C141.719 79.0227 142.901 78.7386 144.276 78.7386C145.651 78.7386 146.83 79.0227 147.812 79.5909C148.801 80.1534 149.56 80.9432 150.088 81.9602C150.622 82.9716 150.889 84.1506 150.889 85.4972C150.889 86.8381 150.622 88.017 150.088 89.0341C149.56 90.0455 148.801 90.8352 147.812 91.4034C146.83 91.9659 145.651 92.2472 144.276 92.2472ZM144.301 89.1023C144.801 89.1023 145.224 88.9489 145.571 88.642C145.918 88.3352 146.182 87.9091 146.364 87.3636C146.551 86.8182 146.645 86.1875 146.645 85.4716C146.645 84.7443 146.551 84.108 146.364 83.5625C146.182 83.017 145.918 82.5909 145.571 82.2841C145.224 81.9773 144.801 81.8239 144.301 81.8239C143.784 81.8239 143.347 81.9773 142.989 82.2841C142.636 82.5909 142.366 83.017 142.179 83.5625C141.997 84.108 141.906 84.7443 141.906 85.4716C141.906 86.1875 141.997 86.8182 142.179 87.3636C142.366 87.9091 142.636 88.3352 142.989 88.642C143.347 88.9489 143.784 89.1023 144.301 89.1023ZM157.192 74.5455V92H153.024V74.5455H157.192ZM172.543 78.9091L168.052 92H163.279L158.796 78.9091H163.185L165.597 87.9261H165.734L168.154 78.9091H172.543ZM174.141 92V78.9091H178.309V92H174.141ZM176.229 77.3835C175.644 77.3835 175.141 77.1903 174.721 76.804C174.3 76.4119 174.09 75.9403 174.09 75.3892C174.09 74.8437 174.3 74.3778 174.721 73.9915C175.141 73.5994 175.644 73.4034 176.229 73.4034C176.82 73.4034 177.323 73.5994 177.738 73.9915C178.158 74.3778 178.369 74.8437 178.369 75.3892C178.369 75.9403 178.158 76.4119 177.738 76.804C177.323 77.1903 176.82 77.3835 176.229 77.3835ZM180.962 92V78.9091H184.925V81.3125H185.07C185.342 80.517 185.803 79.8892 186.45 79.429C187.098 78.9688 187.871 78.7386 188.768 78.7386C189.678 78.7386 190.456 78.9716 191.104 79.4375C191.751 79.9034 192.163 80.5284 192.339 81.3125H192.476C192.72 80.5341 193.197 79.9119 193.908 79.446C194.618 78.9744 195.456 78.7386 196.422 78.7386C197.661 78.7386 198.666 79.1364 199.439 79.9318C200.212 80.7216 200.598 81.8068 200.598 83.1875V92H196.43V84.142C196.43 83.4886 196.263 82.9915 195.928 82.6506C195.592 82.304 195.158 82.1307 194.624 82.1307C194.05 82.1307 193.598 82.3182 193.268 82.6932C192.945 83.0625 192.783 83.5597 192.783 84.1847V92H188.777V84.0994C188.777 83.4915 188.612 83.0114 188.283 82.6591C187.953 82.3068 187.518 82.1307 186.979 82.1307C186.615 82.1307 186.294 82.2187 186.016 82.3949C185.737 82.5653 185.518 82.8097 185.359 83.1278C185.206 83.446 185.129 83.821 185.129 84.2528V92H180.962ZM209.3 92.2472C207.93 92.2472 206.749 91.9773 205.754 91.4375C204.766 90.892 204.004 90.1165 203.47 89.1108C202.942 88.0994 202.678 86.8977 202.678 85.5057C202.678 84.1534 202.945 82.9716 203.479 81.9602C204.013 80.9432 204.766 80.1534 205.737 79.5909C206.709 79.0227 207.854 78.7386 209.172 78.7386C210.104 78.7386 210.956 78.8835 211.729 79.1733C212.501 79.4631 213.169 79.892 213.732 80.4602C214.294 81.0284 214.732 81.7301 215.044 82.5653C215.357 83.3949 215.513 84.3466 215.513 85.4205V86.4602H204.135V84.0398H211.635C211.629 83.5966 211.524 83.2017 211.32 82.8551C211.115 82.5085 210.834 82.2386 210.476 82.0455C210.124 81.8466 209.717 81.7472 209.257 81.7472C208.791 81.7472 208.374 81.8523 208.004 82.0625C207.635 82.267 207.342 82.5483 207.126 82.9062C206.911 83.2585 206.797 83.6591 206.786 84.108V86.571C206.786 87.1051 206.891 87.5739 207.101 87.9773C207.311 88.375 207.609 88.6847 207.996 88.9062C208.382 89.1278 208.842 89.2386 209.376 89.2386C209.746 89.2386 210.081 89.1875 210.382 89.0852C210.683 88.983 210.942 88.8324 211.158 88.6335C211.374 88.4347 211.536 88.1903 211.643 87.9006L215.47 88.0114C215.311 88.8693 214.962 89.6165 214.422 90.2528C213.888 90.8835 213.186 91.375 212.317 91.7273C211.447 92.0739 210.442 92.2472 209.3 92.2472ZM221.809 84.5341V92H217.641V78.9091H221.604V81.3125H221.749C222.039 80.5114 222.533 79.8835 223.232 79.429C223.931 78.9688 224.763 78.7386 225.729 78.7386C226.65 78.7386 227.448 78.946 228.124 79.3608C228.806 79.7699 229.335 80.3437 229.71 81.0824C230.09 81.8153 230.278 82.6733 230.272 83.6562V92H226.104V84.4744C226.11 83.7472 225.925 83.179 225.55 82.7699C225.181 82.3608 224.667 82.1562 224.008 82.1562C223.57 82.1562 223.184 82.2528 222.849 82.446C222.519 82.6335 222.263 82.9034 222.082 83.2557C221.906 83.608 221.815 84.0341 221.809 84.5341ZM240.241 78.9091V81.9773H231.983V78.9091H240.241ZM233.713 75.7727H237.881V87.8835C237.881 88.1392 237.92 88.3466 238 88.5057C238.085 88.6591 238.207 88.7699 238.366 88.8381C238.526 88.9006 238.716 88.9318 238.938 88.9318C239.097 88.9318 239.264 88.9176 239.44 88.8892C239.622 88.8551 239.759 88.8267 239.849 88.804L240.48 91.8125C240.281 91.8693 240 91.9403 239.636 92.0256C239.278 92.1108 238.849 92.1648 238.349 92.1875C237.372 92.233 236.534 92.1193 235.835 91.8466C235.142 91.5682 234.611 91.1364 234.241 90.5511C233.878 89.9659 233.702 89.2301 233.713 88.3438V75.7727ZM248.338 92.2472C246.963 92.2472 245.781 91.9659 244.793 91.4034C243.81 90.8352 243.051 90.0455 242.517 89.0341C241.989 88.017 241.724 86.8381 241.724 85.4972C241.724 84.1506 241.989 82.9716 242.517 81.9602C243.051 80.9432 243.81 80.1534 244.793 79.5909C245.781 79.0227 246.963 78.7386 248.338 78.7386C249.713 78.7386 250.892 79.0227 251.875 79.5909C252.864 80.1534 253.622 80.9432 254.151 81.9602C254.685 82.9716 254.952 84.1506 254.952 85.4972C254.952 86.8381 254.685 88.017 254.151 89.0341C253.622 90.0455 252.864 90.8352 251.875 91.4034C250.892 91.9659 249.713 92.2472 248.338 92.2472ZM248.364 89.1023C248.864 89.1023 249.287 88.9489 249.634 88.642C249.98 88.3352 250.244 87.9091 250.426 87.3636C250.614 86.8182 250.707 86.1875 250.707 85.4716C250.707 84.7443 250.614 84.108 250.426 83.5625C250.244 83.017 249.98 82.5909 249.634 82.2841C249.287 81.9773 248.864 81.8239 248.364 81.8239C247.847 81.8239 247.409 81.9773 247.051 82.2841C246.699 82.5909 246.429 83.017 246.241 83.5625C246.06 84.108 245.969 84.7443 245.969 85.4716C245.969 86.1875 246.06 86.8182 246.241 87.3636C246.429 87.9091 246.699 88.3352 247.051 88.642C247.409 88.9489 247.847 89.1023 248.364 89.1023ZM261.672 77.9716V74.5455H276.425V77.9716H271.132V92H266.973V77.9716H261.672ZM282.704 74.5455V92H278.485V74.5455H282.704Z" fill="white"/>
<path d="M156.577 145.539L163.358 151.342C163.54 151.502 163.753 151.617 163.982 151.678C164.211 151.74 164.449 151.745 164.681 151.696C164.914 151.649 165.136 151.549 165.33 151.402C165.524 151.255 165.686 151.066 165.805 150.846L176.423 131.385" stroke="black" stroke-width="5" stroke-linecap="round" stroke-linejoin="round"/>
<path d="M166.5 165C178.374 165 188 154.703 188 142C188 129.297 178.374 119 166.5 119C154.626 119 145 129.297 145 142C145 154.703 154.626 165 166.5 165Z" stroke="black" stroke-width="5" stroke-linecap="round" stroke-linejoin="round"/>
<defs>
<linearGradient id="paint0_linear_130_2" x1="0" y1="92" x2="320" y2="92" gradientUnits="userSpaceOnUse">
<stop stop-color="#00985C"/>
<stop offset="1" stop-color="#00985C"/>
</linearGradient>
</defs>
</svg>
