<svg width="320" height="184" viewBox="0 0 320 184" fill="none" xmlns="http://www.w3.org/2000/svg">
<rect width="320" height="184" fill="url(#paint0_linear_130_24)"/>
<path d="M49.7415 79H43.2898V61.5455H49.733C51.5114 61.5455 53.0426 61.8949 54.3267 62.5938C55.6165 63.2869 56.6108 64.2869 57.3097 65.5938C58.0085 66.8949 58.358 68.4517 58.358 70.2642C58.358 72.0824 58.0085 73.6449 57.3097 74.9517C56.6165 76.2585 55.625 77.2614 54.3352 77.9602C53.0455 78.6534 51.5142 79 49.7415 79ZM47.5085 75.4034H49.5795C50.5568 75.4034 51.3835 75.2386 52.0597 74.9091C52.7415 74.5739 53.2557 74.0312 53.6023 73.2812C53.9545 72.5256 54.1307 71.5199 54.1307 70.2642C54.1307 69.0085 53.9545 68.0085 53.6023 67.2642C53.25 66.5142 52.7301 65.9744 52.0426 65.6449C51.3608 65.3097 50.5199 65.142 49.5199 65.142H47.5085V75.4034ZM66.9403 79.2472C65.571 79.2472 64.3892 78.9773 63.3949 78.4375C62.4063 77.892 61.6449 77.1165 61.1108 76.1108C60.5824 75.0994 60.3182 73.8977 60.3182 72.5057C60.3182 71.1534 60.5852 69.9716 61.1193 68.9602C61.6534 67.9432 62.4062 67.1534 63.3778 66.5909C64.3494 66.0227 65.4943 65.7386 66.8125 65.7386C67.7443 65.7386 68.5966 65.8835 69.3693 66.1733C70.142 66.4631 70.8097 66.892 71.3722 67.4602C71.9347 68.0284 72.3722 68.7301 72.6847 69.5653C72.9972 70.3949 73.1534 71.3466 73.1534 72.4205V73.4602H61.7756V71.0398H69.2756C69.2699 70.5966 69.1648 70.2017 68.9602 69.8551C68.7557 69.5085 68.4744 69.2386 68.1165 69.0455C67.7642 68.8466 67.358 68.7472 66.8977 68.7472C66.4318 68.7472 66.0142 68.8523 65.6449 69.0625C65.2756 69.267 64.983 69.5483 64.767 69.9062C64.5511 70.2585 64.4375 70.6591 64.4261 71.108V73.571C64.4261 74.1051 64.5313 74.5739 64.7415 74.9773C64.9517 75.375 65.25 75.6847 65.6364 75.9062C66.0227 76.1278 66.483 76.2386 67.017 76.2386C67.3864 76.2386 67.7216 76.1875 68.0227 76.0852C68.3239 75.983 68.5824 75.8324 68.7983 75.6335C69.0142 75.4347 69.1761 75.1903 69.2841 74.9006L73.1108 75.0114C72.9517 75.8693 72.6023 76.6165 72.0625 77.2528C71.5284 77.8835 70.8267 78.375 69.9574 78.7273C69.0881 79.0739 68.0824 79.2472 66.9403 79.2472ZM86.7109 69.9062L82.8842 70.0085C82.8445 69.7358 82.7365 69.4943 82.5604 69.2841C82.3842 69.0682 82.1541 68.9006 81.87 68.7812C81.5916 68.6562 81.2678 68.5938 80.8984 68.5938C80.4155 68.5938 80.0036 68.6903 79.6626 68.8835C79.3274 69.0767 79.1626 69.3381 79.1683 69.6676C79.1626 69.9233 79.2649 70.1449 79.4751 70.3324C79.6911 70.5199 80.0746 70.6705 80.6257 70.7841L83.1484 71.2614C84.4553 71.5114 85.4268 71.9261 86.0632 72.5057C86.7053 73.0852 87.0291 73.8523 87.0348 74.8068C87.0291 75.7045 86.7621 76.4858 86.2337 77.1506C85.7109 77.8153 84.995 78.3324 84.0859 78.7017C83.1768 79.0653 82.1371 79.2472 80.9666 79.2472C79.0973 79.2472 77.6229 78.8636 76.5433 78.0966C75.4695 77.3239 74.8558 76.2898 74.7024 74.9943L78.8189 74.892C78.9098 75.3693 79.1456 75.733 79.5263 75.983C79.907 76.233 80.3928 76.358 80.9837 76.358C81.5178 76.358 81.9524 76.2585 82.2876 76.0597C82.6229 75.8608 82.7933 75.5966 82.799 75.267C82.7933 74.9716 82.6626 74.7358 82.407 74.5597C82.1513 74.3778 81.7507 74.2358 81.2053 74.1335L78.9212 73.6989C77.6087 73.4602 76.6314 73.0199 75.9893 72.3778C75.3473 71.7301 75.0291 70.9062 75.0348 69.9062C75.0291 69.0312 75.2621 68.2841 75.7337 67.6648C76.2053 67.0398 76.8757 66.5625 77.745 66.233C78.6143 65.9034 79.6399 65.7386 80.8217 65.7386C82.5945 65.7386 83.9922 66.1108 85.0149 66.8551C86.0376 67.5937 86.603 68.6108 86.7109 69.9062ZM95.206 79.2472C93.8366 79.2472 92.6548 78.9773 91.6605 78.4375C90.6719 77.892 89.9105 77.1165 89.3764 76.1108C88.848 75.0994 88.5838 73.8977 88.5838 72.5057C88.5838 71.1534 88.8509 69.9716 89.3849 68.9602C89.919 67.9432 90.6719 67.1534 91.6435 66.5909C92.6151 66.0227 93.7599 65.7386 95.0781 65.7386C96.0099 65.7386 96.8622 65.8835 97.6349 66.1733C98.4077 66.4631 99.0753 66.892 99.6378 67.4602C100.2 68.0284 100.638 68.7301 100.95 69.5653C101.263 70.3949 101.419 71.3466 101.419 72.4205V73.4602H90.0412V71.0398H97.5412C97.5355 70.5966 97.4304 70.2017 97.2259 69.8551C97.0213 69.5085 96.7401 69.2386 96.3821 69.0455C96.0298 68.8466 95.6236 68.7472 95.1634 68.7472C94.6974 68.7472 94.2798 68.8523 93.9105 69.0625C93.5412 69.267 93.2486 69.5483 93.0327 69.9062C92.8168 70.2585 92.7031 70.6591 92.6918 71.108V73.571C92.6918 74.1051 92.7969 74.5739 93.0071 74.9773C93.2173 75.375 93.5156 75.6847 93.902 75.9062C94.2884 76.1278 94.7486 76.2386 95.2827 76.2386C95.652 76.2386 95.9872 76.1875 96.2884 76.0852C96.5895 75.983 96.848 75.8324 97.0639 75.6335C97.2798 75.4347 97.4418 75.1903 97.5497 74.9006L101.376 75.0114C101.217 75.8693 100.868 76.6165 100.328 77.2528C99.794 77.8835 99.0923 78.375 98.223 78.7273C97.3537 79.0739 96.348 79.2472 95.206 79.2472ZM107.715 71.5341V79H103.548V65.9091H107.511V68.3125H107.656C107.945 67.5114 108.44 66.8835 109.138 66.429C109.837 65.9688 110.67 65.7386 111.636 65.7386C112.556 65.7386 113.354 65.946 114.031 66.3608C114.712 66.7699 115.241 67.3437 115.616 68.0824C115.996 68.8153 116.184 69.6733 116.178 70.6562V79H112.011V71.4744C112.016 70.7472 111.832 70.179 111.457 69.7699C111.087 69.3608 110.573 69.1562 109.914 69.1562C109.477 69.1562 109.09 69.2528 108.755 69.446C108.425 69.6335 108.17 69.9034 107.988 70.2557C107.812 70.608 107.721 71.0341 107.715 71.5341ZM130.989 65.9091L126.497 79H121.724L117.241 65.9091H121.631L124.043 74.9261H124.179L126.599 65.9091H130.989ZM138.276 79.2472C136.901 79.2472 135.719 78.9659 134.73 78.4034C133.747 77.8352 132.989 77.0455 132.455 76.0341C131.926 75.017 131.662 73.8381 131.662 72.4972C131.662 71.1506 131.926 69.9716 132.455 68.9602C132.989 67.9432 133.747 67.1534 134.73 66.5909C135.719 66.0227 136.901 65.7386 138.276 65.7386C139.651 65.7386 140.83 66.0227 141.812 66.5909C142.801 67.1534 143.56 67.9432 144.088 68.9602C144.622 69.9716 144.889 71.1506 144.889 72.4972C144.889 73.8381 144.622 75.017 144.088 76.0341C143.56 77.0455 142.801 77.8352 141.812 78.4034C140.83 78.9659 139.651 79.2472 138.276 79.2472ZM138.301 76.1023C138.801 76.1023 139.224 75.9489 139.571 75.642C139.918 75.3352 140.182 74.9091 140.364 74.3636C140.551 73.8182 140.645 73.1875 140.645 72.4716C140.645 71.7443 140.551 71.108 140.364 70.5625C140.182 70.017 139.918 69.5909 139.571 69.2841C139.224 68.9773 138.801 68.8239 138.301 68.8239C137.784 68.8239 137.347 68.9773 136.989 69.2841C136.636 69.5909 136.366 70.017 136.179 70.5625C135.997 71.108 135.906 71.7443 135.906 72.4716C135.906 73.1875 135.997 73.8182 136.179 74.3636C136.366 74.9091 136.636 75.3352 136.989 75.642C137.347 75.9489 137.784 76.1023 138.301 76.1023ZM151.192 61.5455V79H147.024V61.5455H151.192ZM166.543 65.9091L162.052 79H157.279L152.796 65.9091H157.185L159.597 74.9261H159.734L162.154 65.9091H166.543ZM168.141 79V65.9091H172.309V79H168.141ZM170.229 64.3835C169.644 64.3835 169.141 64.1903 168.721 63.804C168.3 63.4119 168.09 62.9403 168.09 62.3892C168.09 61.8437 168.3 61.3778 168.721 60.9915C169.141 60.5994 169.644 60.4034 170.229 60.4034C170.82 60.4034 171.323 60.5994 171.738 60.9915C172.158 61.3778 172.369 61.8437 172.369 62.3892C172.369 62.9403 172.158 63.4119 171.738 63.804C171.323 64.1903 170.82 64.3835 170.229 64.3835ZM174.962 79V65.9091H178.925V68.3125H179.07C179.342 67.517 179.803 66.8892 180.45 66.429C181.098 65.9688 181.871 65.7386 182.768 65.7386C183.678 65.7386 184.456 65.9716 185.104 66.4375C185.751 66.9034 186.163 67.5284 186.339 68.3125H186.476C186.72 67.5341 187.197 66.9119 187.908 66.446C188.618 65.9744 189.456 65.7386 190.422 65.7386C191.661 65.7386 192.666 66.1364 193.439 66.9318C194.212 67.7216 194.598 68.8068 194.598 70.1875V79H190.43V71.142C190.43 70.4886 190.263 69.9915 189.928 69.6506C189.592 69.304 189.158 69.1307 188.624 69.1307C188.05 69.1307 187.598 69.3182 187.268 69.6932C186.945 70.0625 186.783 70.5597 186.783 71.1847V79H182.777V71.0994C182.777 70.4915 182.612 70.0114 182.283 69.6591C181.953 69.3068 181.518 69.1307 180.979 69.1307C180.615 69.1307 180.294 69.2187 180.016 69.3949C179.737 69.5653 179.518 69.8097 179.359 70.1278C179.206 70.446 179.129 70.821 179.129 71.2528V79H174.962ZM203.3 79.2472C201.93 79.2472 200.749 78.9773 199.754 78.4375C198.766 77.892 198.004 77.1165 197.47 76.1108C196.942 75.0994 196.678 73.8977 196.678 72.5057C196.678 71.1534 196.945 69.9716 197.479 68.9602C198.013 67.9432 198.766 67.1534 199.737 66.5909C200.709 66.0227 201.854 65.7386 203.172 65.7386C204.104 65.7386 204.956 65.8835 205.729 66.1733C206.501 66.4631 207.169 66.892 207.732 67.4602C208.294 68.0284 208.732 68.7301 209.044 69.5653C209.357 70.3949 209.513 71.3466 209.513 72.4205V73.4602H198.135V71.0398H205.635C205.629 70.5966 205.524 70.2017 205.32 69.8551C205.115 69.5085 204.834 69.2386 204.476 69.0455C204.124 68.8466 203.717 68.7472 203.257 68.7472C202.791 68.7472 202.374 68.8523 202.004 69.0625C201.635 69.267 201.342 69.5483 201.126 69.9062C200.911 70.2585 200.797 70.6591 200.786 71.108V73.571C200.786 74.1051 200.891 74.5739 201.101 74.9773C201.311 75.375 201.609 75.6847 201.996 75.9062C202.382 76.1278 202.842 76.2386 203.376 76.2386C203.746 76.2386 204.081 76.1875 204.382 76.0852C204.683 75.983 204.942 75.8324 205.158 75.6335C205.374 75.4347 205.536 75.1903 205.643 74.9006L209.47 75.0114C209.311 75.8693 208.962 76.6165 208.422 77.2528C207.888 77.8835 207.186 78.375 206.317 78.7273C205.447 79.0739 204.442 79.2472 203.3 79.2472ZM215.809 71.5341V79H211.641V65.9091H215.604V68.3125H215.749C216.039 67.5114 216.533 66.8835 217.232 66.429C217.931 65.9688 218.763 65.7386 219.729 65.7386C220.65 65.7386 221.448 65.946 222.124 66.3608C222.806 66.7699 223.335 67.3437 223.71 68.0824C224.09 68.8153 224.278 69.6733 224.272 70.6562V79H220.104V71.4744C220.11 70.7472 219.925 70.179 219.55 69.7699C219.181 69.3608 218.667 69.1562 218.008 69.1562C217.57 69.1562 217.184 69.2528 216.849 69.446C216.519 69.6335 216.263 69.9034 216.082 70.2557C215.906 70.608 215.815 71.0341 215.809 71.5341ZM234.241 65.9091V68.9773H225.983V65.9091H234.241ZM227.713 62.7727H231.881V74.8835C231.881 75.1392 231.92 75.3466 232 75.5057C232.085 75.6591 232.207 75.7699 232.366 75.8381C232.526 75.9006 232.716 75.9318 232.938 75.9318C233.097 75.9318 233.264 75.9176 233.44 75.8892C233.622 75.8551 233.759 75.8267 233.849 75.804L234.48 78.8125C234.281 78.8693 234 78.9403 233.636 79.0256C233.278 79.1108 232.849 79.1648 232.349 79.1875C231.372 79.233 230.534 79.1193 229.835 78.8466C229.142 78.5682 228.611 78.1364 228.241 77.5511C227.878 76.9659 227.702 76.2301 227.713 75.3438V62.7727ZM242.338 79.2472C240.963 79.2472 239.781 78.9659 238.793 78.4034C237.81 77.8352 237.051 77.0455 236.517 76.0341C235.989 75.017 235.724 73.8381 235.724 72.4972C235.724 71.1506 235.989 69.9716 236.517 68.9602C237.051 67.9432 237.81 67.1534 238.793 66.5909C239.781 66.0227 240.963 65.7386 242.338 65.7386C243.713 65.7386 244.892 66.0227 245.875 66.5909C246.864 67.1534 247.622 67.9432 248.151 68.9602C248.685 69.9716 248.952 71.1506 248.952 72.4972C248.952 73.8381 248.685 75.017 248.151 76.0341C247.622 77.0455 246.864 77.8352 245.875 78.4034C244.892 78.9659 243.713 79.2472 242.338 79.2472ZM242.364 76.1023C242.864 76.1023 243.287 75.9489 243.634 75.642C243.98 75.3352 244.244 74.9091 244.426 74.3636C244.614 73.8182 244.707 73.1875 244.707 72.4716C244.707 71.7443 244.614 71.108 244.426 70.5625C244.244 70.017 243.98 69.5909 243.634 69.2841C243.287 68.9773 242.864 68.8239 242.364 68.8239C241.847 68.8239 241.409 68.9773 241.051 69.2841C240.699 69.5909 240.429 70.017 240.241 70.5625C240.06 71.108 239.969 71.7443 239.969 72.4716C239.969 73.1875 240.06 73.8182 240.241 74.3636C240.429 74.9091 240.699 75.3352 241.051 75.642C241.409 75.9489 241.847 76.1023 242.364 76.1023ZM255.672 64.9716V61.5455H270.425V64.9716H265.132V79H260.973V64.9716H255.672ZM276.704 61.5455V79H272.485V61.5455H276.704Z" fill="black"/>
<path d="M178.409 147.933H176.912V109.902C176.912 109.397 176.755 108.914 176.474 108.557C176.194 108.2 175.813 108 175.416 108H164.942C164.545 108 164.164 108.2 163.884 108.557C163.603 108.914 163.445 109.397 163.445 109.902V119.409H154.467C154.07 119.409 153.69 119.61 153.409 119.966C153.128 120.323 152.971 120.807 152.971 121.311V130.819H145.489C145.092 130.819 144.712 131.019 144.431 131.376C144.15 131.732 143.993 132.216 143.993 132.72V147.933H142.496C142.099 147.933 141.719 148.133 141.438 148.49C141.158 148.847 141 149.33 141 149.835C141 150.339 141.158 150.823 141.438 151.179C141.719 151.536 142.099 151.736 142.496 151.736H178.409C178.806 151.736 179.186 151.536 179.467 151.179C179.747 150.823 179.905 150.339 179.905 149.835C179.905 149.33 179.747 148.847 179.467 148.49C179.186 148.133 178.806 147.933 178.409 147.933ZM166.438 111.803H173.92V147.933H166.438V111.803ZM155.964 123.213H163.445V147.933H155.964V123.213ZM146.985 134.622H152.971V147.933H146.985V134.622Z" fill="black"/>
<defs>
<linearGradient id="paint0_linear_130_24" x1="0" y1="92" x2="320" y2="92" gradientUnits="userSpaceOnUse">
<stop stop-color="#B1D349"/>
<stop offset="0.5" stop-color="#00985C"/>
<stop offset="1" stop-color="#0B5E53"/>
</linearGradient>
</defs>
</svg>
